<svg width="17" height="17" viewBox="0 0 17 17" fill="none" xmlns="http://www.w3.org/2000/svg">
<path fill-rule="evenodd" clip-rule="evenodd" d="M3 3H5.5V5H3V3ZM9.5 5H7V3H9.5V5ZM3 14V12H5.5V14H3ZM7 12H9.5V14H7V12ZM11.5 12V14H14V12H11.5ZM11.5 7.5V9.5H14V7.5H11.5ZM9.5 7.5V9.5H7V7.5H9.5ZM3 7.5H5.5V9.5H3V7.5Z" fill="white"/>
<path d="M14 3V5H11.5V3H14Z" fill="white"/>
<path fill-rule="evenodd" clip-rule="evenodd" d="M0 1C0 0.666667 0.2 0 1 0H16C16.624 0 17 0.2 17 1V16C17 16.3333 16.8 17 16 17H1C0.666667 17 0 16.8 0 16V1ZM1 15.5V1.5C1 1.25 1 1.125 1.0625 1.0625C1.125 1 1.25 1 1.5 1H15.5C15.7934 1 15.9146 1 15.9647 1.05969C16 1.10172 16 1.17335 16 1.2954V15.5C16 15.7804 16 15.9035 15.9389 15.9576C15.891 16 15.8056 16 15.6533 16H1.5C1.1 16 1 16 1 15.5Z" fill="white"/>
</svg>
