<svg width="17" height="17" viewBox="0 0 17 17" fill="none" xmlns="http://www.w3.org/2000/svg">
<g clip-path="url(#clip0)">
<path d="M17 10.0491V6.95087C15.4785 6.40829 15.0691 6.38279 14.8559 5.86783C14.6412 5.35146 14.9147 5.03979 15.606 3.58487L13.4151 1.394C11.98 2.07612 11.6528 2.36017 11.1315 2.14412C10.6165 1.93021 10.5875 1.51442 10.0498 0H6.95087C6.40971 1.51867 6.38421 1.93021 5.86783 2.14412C5.33517 2.36583 5.01571 2.07329 3.58487 1.394L1.394 3.58487C2.08604 5.0405 2.35875 5.35075 2.14412 5.86854C1.93021 6.3835 1.52008 6.40971 0 6.95087V10.0498C1.51512 10.5882 1.93021 10.6165 2.14412 11.1322C2.35946 11.6521 2.08675 11.9588 1.394 13.4151L3.58487 15.606C5.00083 14.9331 5.33446 14.6335 5.86783 14.8559C6.3835 15.0698 6.409 15.4792 6.95087 17H10.0491C10.586 15.4905 10.6151 15.0712 11.1378 14.853C11.6655 14.6349 11.9779 14.9232 13.4151 15.6053L15.606 13.4144C14.9154 11.9623 14.6412 11.6492 14.8559 11.1315C15.0684 10.6172 15.4792 10.591 17 10.0491V10.0491ZM13.5469 10.5903C13.1382 11.5777 13.4987 12.3314 13.8925 13.1247L13.1247 13.8925C12.3505 13.5079 11.594 13.1304 10.5938 13.5455C9.605 13.957 9.32592 14.7447 9.044 15.5833H7.95742C7.6755 14.744 7.39712 13.9563 6.41112 13.5469C5.406 13.1304 4.63533 13.515 3.876 13.8925L3.10887 13.1247C3.50342 12.3328 3.86396 11.5805 3.45383 10.5889C3.04371 9.60358 2.25604 9.32521 1.41667 9.04329V7.95742C2.25604 7.6755 3.04371 7.39712 3.45312 6.41042C3.86254 5.423 3.50129 4.66863 3.10746 3.87529L3.87529 3.10746C4.64171 3.48854 5.40671 3.87033 6.41112 3.45312C7.39712 3.04442 7.6755 2.25604 7.95742 1.41667H9.044C9.32592 2.25604 9.605 3.04371 10.591 3.45312C11.5961 3.86962 12.3661 3.485 13.1261 3.10746L13.894 3.87529C13.5001 4.66933 13.1396 5.42442 13.5483 6.41112C13.957 7.39642 14.7447 7.67479 15.5848 7.95742V9.044C14.7433 9.32592 13.9542 9.60429 13.5469 10.5903V10.5903ZM8.5 6.375C9.67158 6.375 10.625 7.32842 10.625 8.5C10.625 9.67158 9.67158 10.625 8.5 10.625C7.32842 10.625 6.375 9.67158 6.375 8.5C6.375 7.32842 7.32842 6.375 8.5 6.375ZM8.5 4.95833C6.54358 4.95833 4.95833 6.54358 4.95833 8.5C4.95833 10.4564 6.54358 12.0417 8.5 12.0417C10.4564 12.0417 12.0417 10.4564 12.0417 8.5C12.0417 6.54358 10.4564 4.95833 8.5 4.95833Z" fill="white"/>
</g>
<defs>
<clipPath id="clip0">
<rect width="17" height="17" fill="white"/>
</clipPath>
</defs>
</svg>
