<svg width="17" height="17" viewBox="0 0 17 17" fill="none" xmlns="http://www.w3.org/2000/svg">
<path d="M13.1778 11.4119C13.1906 11.6074 13.2118 11.7881 13.243 11.9489C12.83 12.0239 12.8137 11.6166 13.1778 11.4119ZM10.0938 11.5253H10.7992L10.4465 10.5124L10.0938 11.5253ZM12.0417 7.2009C14.6604 7.2009 17 8.94694 17 11.3354C17 12.1826 16.694 13.0142 16.155 13.6595C16.1316 14.416 16.5771 15.5011 16.978 16.2909C15.9028 16.0969 14.3742 15.6676 13.6815 15.2426C9.86567 16.1726 7.08333 13.8373 7.08333 11.3354C7.08333 8.93419 9.43925 7.2009 12.0417 7.2009ZM11.7321 12.5729L10.7121 9.8869H10.1738L9.14883 12.5729H9.724L9.945 11.9531H10.9522L11.174 12.5729H11.7321ZM14.557 10.9466L14.6129 10.6965L14.1582 10.608L14.1128 10.8148C13.9605 10.7921 13.7976 10.7893 13.6319 10.8063L13.6517 10.4819H14.1596V10.0512H13.7126L13.7721 9.81394L13.328 9.68077C13.2954 9.78985 13.2685 9.8961 13.2409 10.0512H12.7344V10.4819H13.1863C13.1736 10.6207 13.1679 10.7645 13.1651 10.9104C12.6664 11.0939 12.4553 11.4424 12.4553 11.759C12.4553 12.133 12.75 12.4617 13.2161 12.4192C13.7948 12.3668 14.1808 11.9297 14.4075 11.3921C14.6427 11.5267 14.7411 11.7541 14.6526 11.9637C14.5711 12.1585 14.3303 12.3434 13.8706 12.3342V12.7974C14.3813 12.8052 14.8828 12.6119 15.0797 12.1436C15.271 11.6854 15.0507 11.186 14.557 10.9466ZM13.6715 11.7066C13.792 11.5812 13.8876 11.4226 13.9598 11.2632C13.8557 11.254 13.7431 11.2568 13.6326 11.2717C13.6404 11.4275 13.6524 11.5727 13.6715 11.7066ZM6.23971 13.6212C4.90308 13.4293 3.71025 12.796 2.82058 11.866C2.69167 11.7321 2.59746 11.4155 2.80712 11.2859L3.02104 11.2306C3.1875 11.0896 2.8645 10.5159 2.99271 10.4231C3.39008 10.1391 3.20167 9.79056 2.95658 9.50298C2.85317 9.38115 2.28508 8.79465 2.22133 8.89877C2.26879 8.73869 2.11792 8.35194 2.02725 8.19965C1.87354 7.94323 1.67167 7.78527 1.59021 7.50406C1.55762 7.39215 1.55762 7.05073 1.49175 6.9721C1.46483 6.94023 1.26013 6.85381 1.26721 6.80706C1.46413 5.63477 2.00671 4.58077 2.78942 3.74848L3.31783 3.53527C3.64933 3.03731 3.66846 3.42335 3.96667 3.29373C4.06654 3.29373 4.17987 2.88431 4.28683 2.82127C4.47171 2.70156 4.33075 2.70156 4.29604 2.64773C4.22237 2.52873 5.848 1.93727 5.87492 2.04352C5.89758 2.13348 5.07096 2.56344 5.16162 2.55069C4.95196 2.57831 4.91229 2.95515 4.95125 2.95302C5.05537 2.94948 5.712 2.45435 6.018 2.5599C6.31763 2.66331 6.85596 2.3219 7.06633 2.14765C7.17187 2.0591 7.26892 1.90398 7.40846 1.90398C8.05233 1.90398 9.01496 2.1689 9.23525 2.30065C9.571 2.5011 9.09075 2.48694 9.03904 2.61727C8.99796 2.71785 8.90446 2.85456 8.86267 2.9091C8.79042 3.00331 8.58004 2.96365 8.62112 2.85102C8.66292 2.73273 8.86763 2.6874 8.56021 2.65906C8.245 2.63002 8.15788 2.41752 7.84196 2.68315C7.74704 2.76319 7.67621 2.88573 7.61458 2.98985C7.52746 3.1386 7.31708 3.13223 7.22925 3.27035C7.14425 3.40635 7.27883 3.63302 7.44458 3.53315C7.4885 3.50623 7.98646 3.99002 7.922 3.60044C7.88021 3.3426 8.06083 3.16694 8.06437 2.97215C8.0665 2.84181 8.26271 2.9254 8.21029 2.9934C8.14158 3.0791 8.0665 3.37165 8.24642 3.38581C8.31442 3.39148 8.48654 3.2739 8.54746 3.32631C8.47946 3.3249 8.32433 3.5976 8.33496 3.59265C8.25846 3.62665 8.16992 3.57777 8.22871 3.7414C8.28112 3.9029 7.93971 3.88377 7.87808 3.91635C7.85187 3.93052 7.58271 3.8356 7.58908 3.89652C7.49629 3.81931 7.61529 3.62806 7.53808 3.5976C7.46017 3.7166 7.497 3.96027 7.32983 3.96027C7.18675 3.96027 6.98842 4.12248 6.902 4.22165C6.84037 4.29035 6.47062 4.43981 6.43025 4.43556C6.64204 4.45752 6.63283 4.61265 6.61512 4.7451C6.57262 5.05181 5.91033 4.76777 5.93796 4.88394C5.96488 4.99585 5.86217 5.29902 5.8395 5.39677C5.81896 5.48531 6.12425 5.54198 6.10725 5.5859C6.10867 5.58094 6.52021 5.44494 6.56058 5.40881L6.65337 5.20127C6.73129 5.14956 6.81346 5.10706 6.90129 5.07448L7.00683 4.89173C7.04225 4.87756 7.46371 4.8124 7.49275 4.82656C7.59829 4.87473 7.79592 5.0766 7.86958 5.16869C7.89508 5.20198 8.03037 5.25156 8.03037 5.30185C8.07925 5.37765 7.99425 5.40669 8.02612 5.45981C8.09979 5.59652 8.11963 5.17577 8.08775 5.2544C8.08775 5.12052 8.18833 5.30469 8.211 5.2891L7.74563 4.82585C7.60113 4.5836 8.13025 4.95548 8.19896 5.00081C8.26696 5.04544 8.40083 5.44635 8.57933 5.35569C8.69125 5.29902 8.5765 5.25723 8.65442 5.19348L8.97246 5.12973C8.71958 5.3146 9.17008 5.55615 9.10137 5.52356C9.21471 5.57598 9.28129 5.48248 9.35213 5.50869C9.3925 5.52427 9.82175 5.51931 9.75304 5.4506C9.86 5.50444 9.81112 5.98044 9.72188 6.0534C9.57738 6.1731 8.88462 6.12423 8.73092 6.01302C8.47521 5.82744 8.52054 6.21065 8.39587 6.26235C8.15221 6.36294 7.78883 5.9344 7.53312 5.92094C7.65779 5.93935 7.54375 5.60573 7.54375 5.58235C7.44529 5.46123 6.82125 5.59581 6.65692 5.61777C6.3495 5.65885 6.0265 5.6546 5.79063 5.84727C5.62488 5.98115 5.62275 6.20144 5.45275 6.3084C5.34225 6.37569 5.22254 6.35373 5.12975 6.44227C4.964 6.59952 4.77275 6.83327 4.67854 7.04081C4.64029 7.12794 4.72954 7.33548 4.70758 7.4474C4.49012 8.13235 4.76142 9.08223 5.59158 9.18706C5.76867 9.20973 5.95 9.28906 6.12921 9.26994C7.07271 7.22994 9.36487 5.78494 12.0417 5.78494C12.7018 5.78494 13.3386 5.87277 13.9386 6.03569C13.1559 2.97427 10.3884 0.708313 7.08333 0.708313C3.17121 0.708313 0 3.87952 0 7.79165C0 11.7038 3.17121 14.875 7.08333 14.875L7.13575 14.8721C6.77521 14.4946 6.47629 14.0731 6.23971 13.6212ZM9.62412 4.3881C9.67229 4.38244 9.56108 4.48585 9.56108 4.48585C9.58021 4.63602 9.69071 4.71748 9.90038 4.79398C10.1554 4.88535 9.92162 5.0596 9.77571 5.01852C9.69496 4.99585 9.27704 4.86977 9.26217 5.0334C9.26217 5.13115 8.8655 5.0341 8.92712 4.93069C8.97033 4.86127 8.95617 4.70473 9.03479 4.60202C9.14812 4.45327 9.2565 4.53402 9.26004 4.62044C9.26146 4.85206 9.49521 4.40369 9.62412 4.3881ZM6.41396 4.18127C6.47062 4.26131 6.90129 4.06581 6.83258 4.07785C6.96504 4.01127 6.84958 4.00419 6.7745 3.96523C6.74971 3.83844 6.72846 3.64223 6.64913 3.56431L6.70154 3.5041C6.579 3.32773 6.48833 3.71802 6.48833 3.71802L6.55208 3.6996L6.52233 3.77965C6.57263 3.87102 6.53579 3.92627 6.52729 3.97585L6.43946 4.0304C6.40758 4.06935 6.59175 4.07431 6.59317 4.08069C6.59954 4.10052 6.37146 4.1331 6.41396 4.18127ZM6.13346 3.97869C6.08458 4.02898 6.13488 4.06085 6.18517 4.0389C6.25883 4.00702 6.358 4.00773 6.36933 3.90927L6.41608 3.84977C6.43662 3.81931 6.37571 3.76902 6.35092 3.76406L6.26308 3.82498L6.21987 3.83631L6.18021 3.88731L6.18446 3.91565L6.13346 3.97869ZM7.99921 5.47115C7.96025 5.47115 7.73783 5.49169 7.75837 5.53065C7.88446 5.73819 8.04383 5.47681 7.99921 5.47115Z" fill="white"/>
</svg>
