<svg width="17" height="17" viewBox="0 0 17 17" fill="none" xmlns="http://www.w3.org/2000/svg">
<g clip-path="url(#clip0)">
<path d="M10.625 14.875C10.625 16.0069 9.63896 17 8.5205 17C7.40204 17 6.37496 16.0069 6.37496 14.875H10.625ZM10.722 2.79437C10.2658 2.52946 9.98392 2.03646 9.98463 1.50521V1.50308C9.98533 0.672917 9.32021 0 8.49996 0C7.67971 0 7.01458 0.672917 7.01458 1.50308V1.50521C7.01529 2.03717 6.73408 2.52946 6.27721 2.79437C2.97071 4.71325 4.87117 11.0925 1.41663 12.2195V13.4583H15.5833V12.2195C12.1288 11.0925 14.0299 4.71254 10.722 2.79437ZM8.49996 0.708333C8.89096 0.708333 9.20829 1.02637 9.20829 1.41667C9.20829 1.80767 8.89096 2.125 8.49996 2.125C8.10896 2.125 7.79163 1.80767 7.79163 1.41667C7.79163 1.02637 8.10896 0.708333 8.49996 0.708333ZM3.9305 12.0417C4.77271 10.8609 5.06738 9.28554 5.32167 7.92271C5.63829 6.22979 5.93721 4.63037 6.98908 4.0205C7.96658 3.45312 9.08292 3.48217 10.0115 4.0205C11.0634 4.63037 11.3623 6.22979 11.679 7.92271C11.9333 9.28554 12.2279 10.8609 13.0701 12.0417H3.9305Z" fill="white"/>
</g>
<defs>
<clipPath id="clip0">
<rect width="17" height="17" fill="white"/>
</clipPath>
</defs>
</svg>
