<svg width="17" height="17" viewBox="0 0 17 17" fill="none" xmlns="http://www.w3.org/2000/svg">
<g clip-path="url(#clip0)">
<path d="M15.9375 2.55H1.0625C0.2414 2.55 0 2.7914 0 3.6125V12.5375C0 13.3586 0.2414 13.6 1.0625 13.6H15.9375C16.7586 13.6 17 13.3586 17 12.5375V3.6125C17 2.7914 16.7586 2.55 15.9375 2.55ZM15.9375 12.1656C15.9375 12.3709 15.7709 12.5375 15.5656 12.5375H1.43438C1.2291 12.5375 1.0625 12.3709 1.0625 12.1656V6.8H15.9375V12.1656ZM15.9375 5.95H1.0625V3.98437C1.0625 3.7791 1.2291 3.6125 1.43438 3.6125H15.5656C15.7709 3.6125 15.9375 3.7791 15.9375 3.98437V5.95ZM9.24375 9.5625H2.55V8.81875H9.24375V9.5625ZM7.0125 11.05H2.55V10.3062H7.0125V11.05ZM14.45 9.5625H12.2188V8.81875H14.45V9.5625Z" fill="white"/>
</g>
<defs>
<clipPath id="clip0">
<rect width="17" height="17" fill="white"/>
</clipPath>
</defs>
</svg>
