<svg width="17" height="17" viewBox="0 0 17 17" fill="none" xmlns="http://www.w3.org/2000/svg">
<path d="M11.4346 1.41667L15.5833 5.56608V11.4339L11.4346 15.5833H5.56537L1.41667 11.4339V5.56608L5.56537 1.41667H11.4346ZM12.0211 0H4.97887L0 4.97887V12.0204L4.97887 17H12.0204L17 12.0211V4.97887L12.0211 0ZM7.4375 4.25H9.5625L8.85417 9.91667H8.14583L7.4375 4.25ZM8.5 12.9271C8.01125 12.9271 7.61458 12.5304 7.61458 12.0417C7.61458 11.5529 8.01125 11.1562 8.5 11.1562C8.98875 11.1562 9.38542 11.5529 9.38542 12.0417C9.38542 12.5304 8.98875 12.9271 8.5 12.9271Z" fill="white"/>
</svg>
