<svg width="19" height="17" viewBox="0 0 19 17" fill="none" xmlns="http://www.w3.org/2000/svg">
<path d="M16.1966 17L10.5455 11.7675C9.48371 12.3866 8.23217 12.75 6.885 12.75C3.08219 12.75 0 9.89612 0 6.375C0 2.85387 3.08219 0 6.885 0C10.6878 0 13.77 2.85387 13.77 6.375C13.77 7.62237 13.3768 8.78192 12.7089 9.76437L18.36 14.9968L16.1966 17ZM6.885 11.3333C9.83714 11.3333 12.24 9.10917 12.24 6.375C12.24 3.64083 9.83714 1.41667 6.885 1.41667C3.93287 1.41667 1.53 3.64083 1.53 6.375C1.53 9.10917 3.93287 11.3333 6.885 11.3333Z" fill="white"/>
</svg>
