<svg width="17" height="17" viewBox="0 0 17 17" fill="none" xmlns="http://www.w3.org/2000/svg">
<g clip-path="url(#clip0)">
<path d="M8.5 7.79096C9.51787 8.10121 10.3147 8.89879 10.6243 9.91667C10.936 8.89879 11.7328 8.10192 12.75 7.79167C11.7328 7.48071 10.936 6.68454 10.6243 5.66667C10.3147 6.68383 9.51787 7.48071 8.5 7.79096ZM14.1674 7.79167C14.846 7.99921 15.3765 8.52975 15.584 9.20904C15.7902 8.52975 16.3221 7.9985 17 7.79167C16.3221 7.58483 15.7909 7.05358 15.5833 6.375C15.3758 7.05358 14.8452 7.58483 14.1674 7.79167ZM13.459 1.41667C13.1495 2.43454 12.3519 3.23142 11.3355 3.54237C12.354 3.85404 13.1495 4.65021 13.4612 5.66879C13.7707 4.65021 14.5683 3.85333 15.5833 3.54237C14.5683 3.23283 13.7707 2.43454 13.459 1.41667ZM8.5 17C3.81296 17 0 13.187 0 8.5C0 3.81296 3.81296 0 8.5 0C9.84158 0 11.0712 0.352042 12.3038 0.835125C10.2156 1.19212 5.66667 3.14854 5.66667 8.5C5.66667 13.7799 9.85787 15.7307 12.3038 16.1649C11.2413 16.7641 9.84158 17 8.5 17Z" fill="white"/>
</g>
<defs>
<clipPath id="clip0">
<rect width="17" height="17" fill="white"/>
</clipPath>
</defs>
</svg>
