<svg width="17" height="17" viewBox="0 0 17 17" fill="none" xmlns="http://www.w3.org/2000/svg">
<g clip-path="url(#clip0)">
<path fill-rule="evenodd" clip-rule="evenodd" d="M3 7.82167V9.5H9.5V3.16667H2.125V2.77778C2.125 2.34845 2.44233 2 2.83333 2H9.91667C10.3077 2 10.625 2.34845 10.625 2.77778V4.33334H13.9308C14.722 4.33334 15.0641 4.78134 15.3021 5.19434C15.7229 5.92545 16.3901 7.08589 16.796 7.82167C16.9292 8.06434 17 8.34278 17 8.62667V12.1111C17 12.9581 16.4737 13.6667 15.5833 13.6667H14.3714C14.3714 14.9547 13.877 15.5 12.704 15.5C11.531 15.5 11.1669 14.1769 11.1669 12.8889L7.20398 12.8333C7.20398 14.1213 6.87698 15.3333 5.70398 15.3333C4.53098 15.3333 3.89148 14.9547 3.89148 13.6667H2.83333C2.44233 13.6667 2.125 13.3182 2.125 12.8889V7.82167H0.708333V6.66667H5.66667V7.82167H3ZM5.42273 12.5C5.89165 12.5 6.20398 12.8184 6.20398 13.3333C6.20398 13.8482 6.13558 14.6 5.66667 14.6C5.19775 14.6 4.81667 14.1816 4.81667 13.6667C4.81667 13.1518 4.95381 12.5 5.42273 12.5ZM12.75 12.5C13.2189 12.5 13.6 13.1518 13.6 13.6667C13.6 14.1816 13.2189 14.6 12.75 14.6C12.2811 14.6 11.9 14.1816 11.9 13.6667C11.9 13.1518 12.2811 12.5 12.75 12.5ZM10.625 10.5556H3V12.1111H4.08354C4.47242 11.6336 5.03767 11.5 5.66667 11.5C6.29567 11.5 6.86092 11.6336 7.24979 12.1111H11.1669C11.5557 11.6336 12.075 11.5 12.704 11.5C13.333 11.5 13.9443 11.6336 14.3331 12.1111H16.204V8.55278L14.704 6C14.5772 5.76123 14.0115 5.19434 13.7601 5.19434H10.625V10.5556ZM11.5208 6.66667V9H14.875L13.8642 7.05867C13.7381 6.816 13.5037 6.66667 13.2494 6.66667H11.5208ZM0 4.33334H5.66667V5.19434H0V4.33334Z" fill="white"/>
</g>
<defs>
<clipPath id="clip0">
<rect width="17" height="17" fill="white"/>
</clipPath>
</defs>
</svg>
