<svg width="17" height="17" viewBox="0 0 17 17" fill="none" xmlns="http://www.w3.org/2000/svg">
<path d="M11.3334 7.77396V17L7.08337 13.2678L2.83337 17V0H7.66137C6.86592 0.827333 6.37504 1.94933 6.37504 3.1875C6.37504 5.83383 8.61479 7.9815 11.3334 7.77396V7.77396ZM10.9792 0C9.21829 0 7.79171 1.42729 7.79171 3.1875C7.79171 4.94771 9.21829 6.375 10.9792 6.375C12.7387 6.375 14.1667 4.94771 14.1667 3.1875C14.1667 1.42729 12.7387 0 10.9792 0ZM10.647 4.59283L9.45133 3.43329L9.94362 2.93958L10.6463 3.60542L12.1444 2.06904L12.6381 2.56204L10.647 4.59283V4.59283Z" fill="white"/>
</svg>
